<svg width="128" height="48" viewBox="0 0 128 48" fill="none" xmlns="http://www.w3.org/2000/svg">
<path fill-rule="evenodd" clip-rule="evenodd" d="M12.306 9.28448H44.569V3.30603H12.306V9.28448ZM10 1H46.8707V11.5905H10V1ZM10.0003 29.0905H12.3063V24.7026H16.4227V29.0905H18.7287V18.5H16.4227V22.6854H12.3063V18.5H10.0003V29.0905ZM24.9658 24.4483H22.2201C22.4227 23.4138 23.0132 23.125 23.6943 23.125C24.5951 23.125 24.9141 23.6681 24.9658 24.4483ZM20.0305 25.3621C20.0305 27.7845 21.621 29.2586 23.9615 29.2586C25.0132 29.2586 25.8796 29.0388 26.4917 28.5992V26.8535H26.4055C25.6943 27.2974 25.121 27.4655 24.3236 27.4655C23.4055 27.4655 22.4917 27.1595 22.2201 25.9914H27.0262V25.1423C27.0262 22.8879 25.9098 21.3793 23.6555 21.3793C21.5908 21.3793 20.0305 23.0043 20.0305 25.3621ZM31.8624 29.0905L33.0477 24.6509L34.246 29.0905H36.2632L38.5693 21.6336V21.5474H36.4529L35.1813 26.0043L33.9787 21.5474H32.1813L30.996 26.0043L29.7417 21.5474H27.5391V21.6336L29.8451 29.0905H31.8624ZM39.7374 26.819C39.7374 28.5302 40.4831 29.2586 42.3149 29.2586C42.6555 29.2586 42.9744 29.1897 43.1598 29.1164V27.2716H43.1253C42.9917 27.3233 42.7675 27.375 42.6167 27.375C42.177 27.375 41.9744 27.1897 41.9744 26.6638V18.5H39.7374V26.819ZM48.7201 24.4483H45.9744C46.177 23.4138 46.7718 23.125 47.4486 23.125C48.3494 23.125 48.6684 23.6681 48.7201 24.4483ZM43.7891 25.3621C43.7891 27.7845 45.3796 29.2586 47.7201 29.2586C48.7718 29.2586 49.6382 29.0388 50.246 28.5992V26.8535H50.1598C49.4443 27.2974 48.871 27.4655 48.0736 27.4655C47.1598 27.4655 46.246 27.1595 45.9744 25.9914H50.7848V25.1423C50.7848 22.8879 49.6684 21.3793 47.4141 21.3793C45.3494 21.3793 43.7891 23.0043 43.7891 25.3621ZM61.6296 21.5517H59.9701V19.4785H57.7331V21.5431H54.871V19.4785H52.6339V21.5431H51.4831V23.3405H52.6339V26.5086C52.6339 28.4224 53.3451 29.2543 55.1598 29.2543C55.802 29.2543 56.2417 29.138 56.5305 29.0345V27.2716H56.4787C56.2244 27.3578 55.9874 27.375 55.802 27.375C55.1253 27.375 54.871 27.069 54.871 26.4095V23.3448H57.7331V26.513C57.7331 28.4267 58.4443 29.2586 60.2589 29.2586C60.9012 29.2586 61.3408 29.1423 61.6296 29.0388V27.2759H61.5779C61.3236 27.3621 61.0865 27.3793 60.9012 27.3793C60.2244 27.3793 59.9701 27.0733 59.9701 26.4138V23.3492H61.6296V21.5517ZM70.8968 22.0948C70.8968 23.0431 70.3365 23.7026 69.1684 23.7026L67.7115 23.7069V20.4526H69.1684C70.3408 20.4526 70.8968 21.1121 70.8968 22.0948ZM69.3581 25.6509C71.6943 25.6509 73.2374 24.4009 73.2374 22.0948C73.2374 19.7543 71.6943 18.5 69.3624 18.5H65.4141V29.0905H67.7158V25.6509H69.3581ZM78.1512 26.0776V26.7198C77.9486 27.2759 77.4744 27.5992 76.8451 27.5992C76.1856 27.5992 75.746 27.3319 75.746 26.7026C75.746 26.0948 76.1856 25.8233 76.9141 25.8233C77.371 25.8233 77.8106 25.8923 78.1512 26.0776ZM76.2201 29.2242C77.0003 29.2242 77.7287 28.9397 78.2201 28.3448V29.0948H80.3882V24.3664C80.3882 22.4698 79.1512 21.3836 76.8796 21.3836C75.8839 21.3836 74.8667 21.6724 74.2891 22.0086V23.8061H74.371C75.0003 23.4483 75.7287 23.2285 76.4917 23.2285C77.6943 23.2285 78.1512 23.5819 78.1512 24.3966V24.5302C77.5779 24.3621 77.0175 24.2759 76.4744 24.2759C74.746 24.2759 73.5434 25.2586 73.5434 26.7328C73.5434 28.3276 74.746 29.2242 76.2201 29.2242ZM85.4701 21.3793C83.2331 21.3793 81.5219 22.9052 81.5219 25.3276C81.5219 27.7543 83.2331 29.2586 85.4701 29.2586C86.2632 29.2586 87.0089 29.0862 87.5693 28.6811V26.7673H87.4831C86.9917 27.1423 86.4141 27.3621 85.7546 27.3621C84.6382 27.3621 83.7891 26.6164 83.7891 25.3276C83.7891 24.0388 84.6382 23.2759 85.7546 23.2759C86.4141 23.2759 86.9917 23.5 87.4831 23.8707H87.5693V21.9569C87.0132 21.5474 86.2675 21.3793 85.4701 21.3793ZM88.9787 29.0905H91.2158V25.6681L93.4529 29.0905H96.0132V29.0043L93.302 25.0561L96.0132 21.6336V21.5474H93.4701L91.2158 24.5302V18.5H88.9787V29.0905ZM101.026 26.0776V26.7198C100.824 27.2759 100.349 27.5992 99.7201 27.5992C99.0606 27.5992 98.621 27.3319 98.621 26.7026C98.621 26.0948 99.0606 25.8233 99.7891 25.8233C100.246 25.8233 100.69 25.8923 101.026 26.0776ZM99.0951 29.2242C99.8753 29.2242 100.604 28.9397 101.095 28.3448L101.091 29.0948H103.259V24.3664C103.259 22.4698 102.022 21.3836 99.7503 21.3836C98.7546 21.3836 97.7374 21.6724 97.1598 22.0086V23.8061H97.246C97.8753 23.4483 98.6037 23.2285 99.3667 23.2285C100.569 23.2285 101.026 23.5819 101.026 24.3966V24.5302C100.449 24.3621 99.8925 24.2759 99.3494 24.2759C97.621 24.2759 96.4184 25.2586 96.4184 26.7328C96.4184 28.3276 97.621 29.2242 99.0951 29.2242ZM108.858 21.4655C108.026 21.4655 107.431 21.9397 107.026 22.7716L107.03 21.5517H104.862V29.0905H107.099V24.7543C107.285 23.9742 107.828 23.569 108.522 23.569C108.944 23.569 109.25 23.6336 109.505 23.7371H109.586V21.6035C109.466 21.5345 109.164 21.4655 108.858 21.4655ZM115.513 24.1078V26.5302C115.143 27.0733 114.651 27.3104 114.091 27.3104C113.108 27.3104 112.449 26.6164 112.449 25.3276C112.449 24.0388 113.108 23.3276 114.091 23.3276C114.651 23.3276 115.143 23.5647 115.513 24.1078ZM113.345 29.2586C114.362 29.2586 115.108 28.9224 115.582 28.3104V29.0862H117.75V18.5H115.513V22.2414C115.039 21.6854 114.328 21.3793 113.345 21.3793C111.414 21.3793 110.177 23.1595 110.177 25.3276C110.177 27.4957 111.414 29.2586 113.345 29.2586ZM16.5434 32.5474H10.0003V43.1423H16.5391V41.8535H11.4744V38.3276H16.0649V37.0733H11.4744V33.8362H16.5434V32.5474ZM24.5563 38.444C24.5563 36.6336 23.6253 35.5302 21.9486 35.5302C20.8968 35.5302 20.1512 36.0733 19.7115 36.7673V35.6811H18.3063V43.138H19.7115V38.1724C19.9658 37.3793 20.7115 36.819 21.5908 36.819C22.6598 36.819 23.1512 37.513 23.1512 38.4785V43.138H24.5563V38.444ZM30.2503 35.6811H28.3365V33.6897H26.9313V35.6724H25.6425V36.875H26.9313V41.0259C26.9313 42.4828 27.6253 43.2802 29.371 43.2802C29.7589 43.2802 30.0477 43.2155 30.2503 43.1293V41.9267H30.1986C30.0305 41.9957 29.7934 42.0302 29.5736 42.0302C28.7762 42.0302 28.3365 41.7414 28.3365 40.8966V36.8836H30.2503V35.6811ZM36.3149 38.6811H32.6037C32.8106 37.5302 33.5046 36.7328 34.5693 36.7328C35.7201 36.7328 36.2632 37.5819 36.3149 38.6811ZM31.1468 39.4957C31.1468 41.8319 32.6382 43.2888 34.8236 43.2888C35.7417 43.2888 36.5391 43.1035 37.1512 42.6293V41.3923H37.0994C36.4356 41.8836 35.8451 42.069 35.0132 42.069C33.677 42.069 32.7072 41.3405 32.5563 39.8319H37.6684V39.1897C37.6684 37.0043 36.6037 35.5302 34.552 35.5302C32.5348 35.5302 31.1468 37.1552 31.1468 39.4957ZM42.5822 35.5647C41.7718 35.5647 41.0606 36.0388 40.7374 36.8362L40.7331 35.6811H39.3279V43.1336H40.7331V38.2716C40.9701 37.4267 41.6124 36.9181 42.3753 36.9181C42.7158 36.9181 43.0563 36.9698 43.2589 37.069H43.3106V35.6811C43.1943 35.6164 42.9055 35.5647 42.5822 35.5647ZM50.0563 39.4095C50.0563 40.9181 49.2417 42.0173 47.8537 42.0173C47.0951 42.0173 46.3796 41.5776 46.0089 40.8535V37.9871C46.3796 37.2586 47.0908 36.8017 47.8537 36.8017C49.2417 36.8017 50.0563 37.9181 50.0563 39.4095ZM51.5003 39.4095C51.5003 37.3448 50.3149 35.5302 48.0951 35.5302C47.177 35.5302 46.3968 36.0043 46.0089 36.5259V35.6811H44.6037V46H46.0089V42.3061C46.4012 42.8147 47.1813 43.2888 48.0951 43.2888C50.3149 43.2888 51.5003 41.4785 51.5003 39.4095ZM56.4098 35.5647C55.5994 35.5647 54.8882 36.0388 54.5649 36.8362V35.6811H53.1598V43.1336H54.5649V38.2716C54.802 37.4267 55.4443 36.9181 56.2072 36.9181C56.5434 36.9181 56.8839 36.9698 57.0865 37.069H57.1382V35.6811C57.0218 35.6164 56.7331 35.5647 56.4098 35.5647ZM60.0736 33.5474C60.0736 33.0561 59.6684 32.6681 59.177 32.6681C58.7029 32.6681 58.2762 33.0561 58.2805 33.5474C58.2805 34.0388 58.7029 34.4267 59.177 34.4267C59.6684 34.4267 60.0736 34.0388 60.0736 33.5474ZM59.8839 43.138H58.4787V35.6811H59.8839V43.138ZM67.1555 40.9871C67.1555 39.5647 65.9701 39.1207 64.9012 38.7845L64.8469 38.7668C63.6822 38.3871 63.1555 38.2153 63.1598 37.6423C63.1598 37.1164 63.6512 36.7285 64.5305 36.7285C65.4098 36.7285 66.1253 37.0173 66.7331 37.5086H66.7848V36.1509C66.1555 35.7242 65.3753 35.5388 64.496 35.5388C62.9874 35.5388 61.802 36.388 61.802 37.8276C61.802 39.2328 62.9701 39.6207 64.0218 39.9612C64.0874 39.9829 64.1511 40.0039 64.213 40.0242C65.2584 40.3681 65.7848 40.5412 65.7848 41.1638C65.7848 41.8061 65.0736 42.1121 64.2762 42.1121C63.3968 42.1121 62.4658 41.8578 61.8365 41.2802H61.7675V42.6164C62.3279 43.0561 63.3106 43.2931 64.2934 43.2931C65.9012 43.2931 67.1555 42.513 67.1555 40.9871ZM73.5434 38.6811H69.8322C70.0391 37.5302 70.7331 36.7328 71.7977 36.7328C72.9529 36.7328 73.4917 37.5819 73.5434 38.6811ZM68.3753 39.4957C68.3753 41.8319 69.8667 43.2888 72.052 43.2888C72.9701 43.2888 73.7675 43.1035 74.3796 42.6293V41.3923H74.3279C73.6641 41.8836 73.0736 42.069 72.2417 42.069C70.9012 42.069 69.9356 41.3405 69.7848 39.8319H74.8968V39.1897C74.8968 37.0043 73.8322 35.5302 71.7805 35.5302C69.7632 35.5302 68.3753 37.1552 68.3753 39.4957Z" fill="#1C1C1E"/>
</svg>
